<svg width="50" height="60" viewBox="0 0 50 60" fill="none" xmlns="http://www.w3.org/2000/svg">
<path d="M16.2043 10H18.2526V12H16.2043V10Z" fill="#FF3E9D"/>
<path d="M20.3008 10H22.349V12H20.3008V10Z" fill="#FF3E9D"/>
<path d="M24.3972 10H26.4454V12H24.3972V10Z" fill="#FF3E9D"/>
<path d="M30.542 4H32.5902V6H30.542V4Z" fill="#FF3E9D"/>
<path d="M49.9221 59.383C49.9996 59.2002 50.0198 58.9991 49.9803 58.8051C49.9407 58.6111 49.8431 58.4328 49.6998 58.293L43.76 52.493L41.8296 44.952L42.825 38.152C42.8404 38.0454 42.8383 37.937 42.8189 37.831L40.7707 26.859C40.6967 26.1032 40.347 25.3986 39.7852 24.8738C39.2234 24.3489 38.4871 24.0388 37.7106 24C37.3627 24.0035 37.018 24.0654 36.6917 24.183V5C36.69 3.67441 36.15 2.40356 35.1901 1.46622C34.2302 0.528882 32.9287 0.00158786 31.5711 0H11.0839C9.72638 0.00158786 8.4249 0.528882 7.46497 1.46622C6.50504 2.40356 5.96504 3.67441 5.96341 5V17.268C5.21831 17.041 4.41783 17.0568 3.68273 17.313C3.0405 17.5305 2.46617 17.9052 2.01467 18.4014C1.56318 18.8976 1.24964 19.4987 1.10404 20.147C0.957954 20.7764 0.977312 21.4317 1.16031 22.0519C1.34331 22.6721 1.68399 23.237 2.15067 23.694L5.17792 26.65C4.34681 27.0598 3.69712 27.7512 3.35046 28.595C3.00381 29.4388 2.98394 30.377 3.29459 31.234C2.48326 31.3573 1.73263 31.7279 1.15012 32.293C0.785542 32.6482 0.496294 33.0701 0.29894 33.5346C0.101585 33.9991 0 34.4971 0 35C0 35.5029 0.101585 36.0009 0.29894 36.4654C0.496294 36.9299 0.785542 37.3518 1.15012 37.707L2.82555 39.343C2.19292 39.5156 1.61566 39.8425 1.14807 40.293C0.413759 41.0114 0.00134584 41.985 0.00134584 43C0.00134584 44.015 0.413759 44.9886 1.14807 45.707L5.24449 49.707C5.46115 49.9142 5.70172 50.096 5.96136 50.249V51C5.96299 52.3256 6.50299 53.5964 7.46292 54.5338C8.42285 55.4711 9.72433 55.9984 11.0819 56H20.8989L24.6953 59.707C24.7906 59.8001 24.9038 59.8739 25.0284 59.9242C25.153 59.9745 25.2866 60.0002 25.4214 60H48.9758C49.1783 60 49.3763 59.9415 49.5447 59.8316C49.7132 59.7218 49.8445 59.5657 49.9221 59.383ZM16.2044 2H26.4455V4H16.2044V2ZM8.01162 19V5C8.01162 4.20435 8.33531 3.44129 8.91148 2.87868C9.48765 2.31607 10.2691 2 11.0839 2H14.1562V5C14.1562 5.26522 14.2641 5.51957 14.4562 5.70711C14.6483 5.89464 14.9087 6 15.1803 6H27.4696C27.7412 6 28.0017 5.89464 28.1937 5.70711C28.3858 5.51957 28.4937 5.26522 28.4937 5V2H31.566C32.3808 2 33.1623 2.31607 33.7385 2.87868C34.3146 3.44129 34.6383 4.20435 34.6383 5V46H11.7854C11.6137 45.3557 11.271 44.7669 10.7921 44.293L9.11048 42.651C9.92925 42.4332 10.6512 41.9569 11.1638 41.2965C11.6763 40.6361 11.9507 39.8286 11.9442 39C11.9381 38.588 11.8634 38.1796 11.723 37.791C12.2837 37.708 12.8185 37.5043 13.2886 37.1945C13.7587 36.8847 14.1523 36.4767 14.4409 36H19.2768C19.5484 36 19.8089 35.8946 20.0009 35.7071C20.193 35.5196 20.3009 35.2652 20.3009 35V29C20.3009 28.7348 20.193 28.4804 20.0009 28.2929C19.8089 28.1054 19.5484 28 19.2768 28H13.1321C12.8605 28 12.6 28.1054 12.408 28.2929C12.2159 28.4804 12.108 28.7348 12.108 29V29.6L9.76283 27.311C9.27453 26.846 8.67119 26.5125 8.01162 26.343V19ZM14.1562 31.66V30H18.2527V34H15.0144C15.0036 33.1493 14.7015 32.3266 14.1562 31.663V31.66ZM3.59875 22.28C3.37657 22.0601 3.21477 21.789 3.12831 21.4919C3.04186 21.1948 3.03353 20.8811 3.10411 20.58C3.17641 20.2597 3.33297 19.9633 3.55835 19.7201C3.78373 19.4768 4.07015 19.2952 4.38936 19.193C4.54897 19.1368 4.71742 19.1084 4.88708 19.109C5.27412 19.1142 5.65006 19.2361 5.96341 19.458V24.589L3.59875 22.28ZM5.67359 28.727C6.03296 28.393 6.5088 28.2046 7.00492 28.2C7.49899 28.1984 7.9736 28.3879 8.32499 28.727L12.4153 32.72C12.7692 33.0647 12.9695 33.5319 12.9724 34.02C12.971 34.2417 12.9283 34.4612 12.8464 34.668C12.7561 34.9109 12.6112 35.1309 12.4224 35.312C12.0988 35.6285 11.668 35.8188 11.2109 35.8469C10.7537 35.8751 10.3018 35.7393 9.94 35.465L5.67768 31.312C5.50303 31.1429 5.36449 30.9416 5.27009 30.7198C5.17569 30.498 5.1273 30.2602 5.12774 30.02C5.12887 29.5358 5.32492 29.0714 5.67359 28.727ZM2.60128 36.293C2.33916 36.0367 2.16085 35.7101 2.08893 35.3547C2.01702 34.9994 2.05473 34.6311 2.1973 34.2967C2.33987 33.9623 2.58087 33.6767 2.88979 33.4761C3.19871 33.2756 3.56164 33.169 3.93261 33.17C4.35495 33.171 4.76443 33.312 5.09395 33.57L9.34295 37.707C9.68178 38.0524 9.86858 38.5136 9.86332 38.9919C9.85806 39.4701 9.66116 39.9273 9.31481 40.2655C8.96847 40.6037 8.50023 40.796 8.01046 40.8011C7.52068 40.8063 7.04832 40.6239 6.69462 40.293L2.60128 36.293ZM6.69769 48.293L2.60128 44.293C2.27307 43.946 2.09506 43.4885 2.10452 43.0163C2.11398 42.544 2.31016 42.0937 2.65201 41.7595C2.99385 41.4253 3.45484 41.2332 3.93846 41.2234C4.42207 41.2136 4.89081 41.3869 5.24654 41.707L9.34295 45.707C9.68178 46.0524 9.86858 46.5136 9.86332 46.9919C9.85806 47.4701 9.66116 47.9273 9.31481 48.2655C8.96847 48.6037 8.50023 48.796 8.01046 48.8011C7.52068 48.8063 7.04832 48.6239 6.69462 48.293H6.69769ZM11.0839 54C10.2691 54 9.48765 53.6839 8.91148 53.1213C8.33531 52.5587 8.01162 51.7957 8.01162 51V50.825H8.01981C8.88 50.8307 9.71754 50.556 10.3997 50.0442C11.0818 49.5325 11.5695 48.8131 11.7854 48H34.6383V51C34.6383 51.7957 34.3146 52.5587 33.7385 53.1213C33.1623 53.6839 32.3808 54 31.566 54H11.0839ZM25.8454 58L23.7972 56H31.566C32.9236 55.9984 34.225 55.4711 35.185 54.5338C36.1449 53.5964 36.6849 52.3256 36.6865 51V26.994C36.6882 26.7298 36.7968 26.477 36.9886 26.2908C37.1805 26.1045 37.4401 26 37.7106 26C38.2452 26 38.6579 26.586 38.7511 27.179L40.7696 38.02L39.7691 44.858C39.7507 44.9861 39.7577 45.1165 39.7896 45.242L41.8378 53.242C41.8827 53.418 41.9758 53.5787 42.1071 53.707L46.5036 58H25.8454Z" fill="#FF3E9D"/>
<path d="M19.2769 50H23.3733V52H19.2769V50Z" fill="#FF3E9D"/>
<path d="M13.132 26H19.2766C19.5482 26 19.8087 25.8946 20.0008 25.7071C20.1928 25.5196 20.3007 25.2652 20.3007 25V19C20.3007 18.7348 20.1928 18.4804 20.0008 18.2929C19.8087 18.1054 19.5482 18 19.2766 18H13.132C12.8604 18 12.5999 18.1054 12.4079 18.2929C12.2158 18.4804 12.1079 18.7348 12.1079 19V25C12.1079 25.2652 12.2158 25.5196 12.4079 25.7071C12.5999 25.8946 12.8604 26 13.132 26ZM14.1561 20H18.2525V24H14.1561V20Z" fill="#FF3E9D"/>
<path d="M22.3491 25C22.3491 25.2652 22.457 25.5196 22.6491 25.7071C22.8411 25.8946 23.1016 26 23.3732 26H29.5178C29.7895 26 30.0499 25.8946 30.242 25.7071C30.4341 25.5196 30.542 25.2652 30.542 25V19C30.542 18.7348 30.4341 18.4804 30.242 18.2929C30.0499 18.1054 29.7895 18 29.5178 18H23.3732C23.1016 18 22.8411 18.1054 22.6491 18.2929C22.457 18.4804 22.3491 18.7348 22.3491 19V25ZM24.3973 20H28.4937V24H24.3973V20Z" fill="#FF3E9D"/>
<path d="M29.5178 28H23.3732C23.1016 28 22.8411 28.1054 22.6491 28.2929C22.457 28.4804 22.3491 28.7348 22.3491 29V35C22.3491 35.2652 22.457 35.5196 22.6491 35.7071C22.8411 35.8946 23.1016 36 23.3732 36H29.5178C29.7895 36 30.0499 35.8946 30.242 35.7071C30.4341 35.5196 30.542 35.2652 30.542 35V29C30.542 28.7348 30.4341 28.4804 30.242 28.2929C30.0499 28.1054 29.7895 28 29.5178 28ZM28.4937 34H24.3973V30H28.4937V34Z" fill="#FF3E9D"/>
<path d="M16.2043 42H18.2526V44H16.2043V42Z" fill="#FF3E9D"/>
<path d="M20.3008 42H22.349V44H20.3008V42Z" fill="#FF3E9D"/>
<path d="M24.3972 42H26.4454V44H24.3972V42Z" fill="#FF3E9D"/>
</svg>
