<svg width="60" height="60" viewBox="0 0 60 60" fill="none" xmlns="http://www.w3.org/2000/svg">
<path d="M50.0001 43.9998C50.0001 45.1042 49.0051 45.9998 47.7779 45.9998C46.5507 45.9998 45.5557 45.1042 45.5557 43.9998C45.5557 42.8953 46.5507 41.9998 47.7779 41.9998C49.0051 41.9998 50.0001 42.8953 50.0001 43.9998Z" fill="#FF3E9D"/>
<path d="M56.6667 34H55.5556V29C55.5534 27.3438 54.0625 26.002 52.2222 26H3.33333C1.49306 26.002 0.00217014 27.3438 0 29V57C0.00217014 58.6563 1.49306 59.9981 3.33333 60H52.2222C54.0625 59.9981 55.5534 58.6563 55.5556 57V50H56.6667C58.5069 49.9981 59.9978 48.6563 60 47V37C59.9978 35.3438 58.5069 34.002 56.6667 34ZM53.3333 57C53.3328 57.5518 52.8353 57.9995 52.2222 58H3.33333C2.72027 57.9995 2.22276 57.5518 2.22222 57V29C2.22276 28.4482 2.72027 28.0005 3.33333 28H52.2222C52.8353 28.0005 53.3328 28.4482 53.3333 29V38H44.4444C42.6042 38.002 41.1133 39.3438 41.1111 41V47C41.1133 48.6563 42.6042 49.9981 44.4444 50H53.3333V57ZM57.7778 47C57.7772 47.5518 57.2797 47.9995 56.6667 48H44.4444C43.8314 47.9995 43.3339 47.5518 43.3333 47V41C43.3339 40.4483 43.8314 40.0005 44.4444 40H57.7778V47ZM55.5556 38V36H56.6667C57.2797 36.0005 57.7772 36.4482 57.7778 37V38H55.5556Z" fill="#FF3E9D"/>
<path d="M32.2222 7.92041C35.6283 7.47315 38.3035 5.06543 38.8005 2H43.4218C43.9187 5.06543 46.594 7.47315 50 7.92041V24H52.2222V3C52.2201 1.34375 50.7292 0.00195313 48.8889 0H33.3333C31.4931 0.00195313 30.0022 1.34375 30 3V24H32.2222V7.92041ZM48.8889 2C49.502 2.00049 49.9995 2.44824 50 3V5.89942C47.8201 5.49512 46.1165 3.96192 45.6673 2H48.8889ZM32.2222 3C32.2228 2.44824 32.7203 2.00049 33.3333 2H36.5549C36.1057 3.96192 34.4021 5.49512 32.2222 5.89942V3Z" fill="#FF3E9D"/>
<path d="M34.4443 16C34.4443 19.3135 37.4294 22 41.111 22C44.7926 22 47.7777 19.3135 47.7777 16C47.7777 12.6865 44.7926 10 41.111 10C37.431 10.0034 34.4481 12.688 34.4443 16ZM45.5554 16C45.5554 18.209 43.5654 20 41.111 20C38.6566 20 36.6666 18.209 36.6666 16C36.6666 13.791 38.6566 12 41.111 12C43.5643 12.0024 45.5527 13.792 45.5554 16Z" fill="#FF3E9D"/>
<path d="M18.889 13.9204C22.295 13.4731 24.9702 11.0654 25.4672 8H27.7779V6H20.0001C18.1598 6.00195 16.6689 7.34375 16.6667 9V24H18.889V13.9204ZM18.889 9C18.8895 8.44824 19.387 8.00049 20.0001 8H23.2217C22.7724 9.96192 21.0689 11.4951 18.889 11.8994V9Z" fill="#FF3E9D"/>
<path d="M5.55547 19.9204C8.96151 19.4731 11.6367 17.0654 12.1337 14H14.4444V12H6.66659C4.82631 12.002 3.33542 13.3438 3.33325 15V24H5.55547V19.9204ZM5.55547 15C5.55602 14.4482 6.05352 14.0005 6.66659 14H9.88816C9.43894 15.9619 7.73538 17.4951 5.55547 17.8994V15Z" fill="#FF3E9D"/>
<path d="M21.1111 24H23.3333C23.336 21.792 25.3244 20.0024 27.7778 20V18C24.0977 18.0034 21.1149 20.688 21.1111 24Z" fill="#FF3E9D"/>
</svg>
