<svg width="60" height="60" viewBox="0 0 60 60" fill="none" xmlns="http://www.w3.org/2000/svg">
<path d="M59.8896 14.2203C59.6831 13.4522 59.1792 12.7974 58.4899 12.4004C57.8001 12.0015 56.9799 11.8936 56.2105 12.1002C55.4421 12.3072 54.7874 12.8106 54.3905 13.5001L53.8906 14.3702C53.4156 14.0972 52.8087 14.2579 52.531 14.7305L49.9913 19.0601L49.1214 18.5601C48.8909 18.4268 48.6166 18.3907 48.3598 18.46C48.1025 18.5298 47.8838 18.6988 47.7515 18.9302C47.4805 19.4083 47.6456 20.0157 48.1215 20.2901L48.9915 20.7901L40.493 35.5201L38.3932 41.1304L37.3934 43.0001C36.808 44.0186 36.8705 45.2847 37.5535 46.2403L35.3039 49.0001L34.6741 47.4205C34.39 46.7164 33.7324 46.2339 32.9762 46.1749C32.2195 46.1153 31.4945 46.4893 31.1044 47.1402L30.7446 47.7501L30.4048 43.7501C30.3267 42.8038 29.5939 42.043 28.6517 41.9288C27.709 41.815 26.8166 42.3799 26.5154 43.2803L24.0558 50.6602C23.884 51.1822 24.1652 51.7447 24.6856 51.9205C24.7832 51.9659 24.8882 51.9932 24.9956 52.0001C25.4252 52.0015 25.808 51.7276 25.9456 51.3204L28.3949 43.9405L28.745 48.0001C28.8172 48.8663 29.4397 49.5865 30.2862 49.7828C31.1327 49.9791 32.0086 49.606 32.4543 48.8604L32.8243 48.2501L33.4444 49.8204C33.7075 50.482 34.3026 50.9542 35.0071 51.0591C35.7116 51.1641 36.4185 50.8863 36.8637 50.3301L39.1934 47.3804C39.4511 47.4478 39.7167 47.4815 39.9833 47.4805C41.0549 47.4888 42.0498 46.9244 42.5927 46.0001L43.5925 44.3301L47.4019 39.7003L55.9903 24.7901L56.8603 25.2901C57.0922 25.4229 57.2611 25.6421 57.3299 25.9004C57.3993 26.1568 57.3631 26.4302 57.2303 26.6602L53.231 33.5904C53.0802 33.8179 53.0289 34.0972 53.0895 34.3638C53.15 34.6299 53.3165 34.8599 53.5508 35.0001C53.7812 35.1338 54.0556 35.17 54.3124 35.1006C54.5697 35.0308 54.7884 34.8619 54.9207 34.6304L58.92 27.7003C59.3189 27.0103 59.4267 26.19 59.2198 25.4205C59.0128 24.6519 58.5094 23.9971 57.8201 23.6002L56.9501 23.1002L59.4497 18.7701C59.7226 18.295 59.562 17.6885 59.0899 17.4102L59.5898 16.5401C59.9994 15.8394 60.1078 15.0025 59.8896 14.2203ZM56.1202 14.5001C56.2525 14.2686 56.4722 14.0992 56.7304 14.0303C56.9872 13.9669 57.2587 14.0025 57.4901 14.1304C57.722 14.2628 57.8909 14.4825 57.9602 14.7403C58.0237 14.9971 57.988 15.2686 57.8601 15.5001L57.3602 16.3702L55.6203 15.3702L56.1202 14.5001ZM42.4926 42.4205L41.9927 42.1304L40.513 41.2701L41.9327 37.4703L45.082 39.2901L42.4926 42.4205ZM39.4931 45.3101C39.0708 45.0157 38.941 44.4493 39.1934 44.0001L39.6933 43.1304L41.4327 44.1304L40.9328 44.9903C40.7927 45.2335 40.5574 45.4063 40.2835 45.4673C40.0096 45.5279 39.7231 45.4712 39.4931 45.3101ZM46.222 37.6504L42.7626 35.6504L50.7612 21.7901L54.2206 23.7901L46.222 37.6504ZM55.2204 22.0601L51.7611 20.0601L53.7607 16.6002L57.2201 18.6002L55.2204 22.0601Z" fill="#FF3E9D"/>
<path d="M15.7771 44.81L12.2381 48.3396L10.1184 46.2199C9.72829 45.8323 9.09852 45.8323 8.70845 46.2199C8.51902 46.4078 8.4126 46.6632 8.4126 46.9297C8.4126 47.1963 8.51902 47.4521 8.70845 47.6396L10.8282 49.7593C11.2031 50.1313 11.7099 50.3398 12.2381 50.3393C12.7693 50.3422 13.2804 50.1338 13.6578 49.7593L17.187 46.2199C17.5268 45.823 17.5038 45.2318 17.1347 44.8627C16.7652 44.4931 16.174 44.4702 15.7771 44.81Z" fill="#FF3E9D"/>
<path d="M3.99927 47.5C3.99927 52.1948 7.80428 56 12.4978 56C17.1914 56 20.9964 52.1948 20.9964 47.5C20.9964 46.9477 20.5487 46.5 19.9965 46.5C19.4444 46.5 18.9967 46.9477 18.9967 47.5C18.9967 51.0898 16.0871 54 12.4978 54C8.90859 54 5.99893 51.0898 5.99893 47.5C5.99893 43.9101 8.90859 41 12.4978 41C13.9048 40.9961 15.2742 41.4526 16.3971 42.3003C16.8389 42.6318 17.4657 42.542 17.7967 42.1001C18.1282 41.6582 18.0389 41.0317 17.597 40.7002C15.0218 38.7685 11.5761 38.458 8.6972 39.8974C5.81781 41.3374 3.99927 44.2807 3.99927 47.5Z" fill="#FF3E9D"/>
<path d="M35.9939 7.99988C36.5461 7.99988 36.9938 7.55261 36.9938 6.99988C36.9938 6.44763 36.5461 5.99988 35.9939 5.99988H9.99837C9.44621 5.99988 8.99854 6.44763 8.99854 6.99988V10.9999C8.99854 11.5526 9.44621 11.9999 9.99837 11.9999H35.9939C36.5461 11.9999 36.9938 11.5526 36.9938 10.9999C36.9938 10.4476 36.5461 9.99988 35.9939 9.99988H10.9982V7.99988H35.9939Z" fill="#FF3E9D"/>
<path d="M12.9979 14C12.4457 14 11.998 14.4477 11.998 14.9998C11.998 15.5525 12.4457 15.9997 12.9979 15.9997H32.9945C33.5466 15.9997 33.9943 15.5525 33.9943 14.9998C33.9943 14.4477 33.5466 14 32.9945 14H12.9979Z" fill="#FF3E9D"/>
<path d="M38.9934 21H16.9971C16.445 21 15.9973 21.4477 15.9973 21.9998C15.9973 22.5525 16.445 22.9997 16.9971 22.9997H38.9934C39.5455 22.9997 39.9932 22.5525 39.9932 21.9998C39.9932 21.4477 39.5455 21 38.9934 21Z" fill="#FF3E9D"/>
<path d="M28.995 27.9998C28.995 27.4477 28.5474 27 27.9952 27H7.99861C7.44646 27 6.99878 27.4477 6.99878 27.9998C6.99878 28.5525 7.44646 28.9997 7.99861 28.9997H27.9952C28.5474 28.9997 28.995 28.5525 28.995 27.9998Z" fill="#FF3E9D"/>
<path d="M38.9933 27H31.9945C31.4423 27 30.9946 27.4477 30.9946 27.9998C30.9946 28.5525 31.4423 28.9997 31.9945 28.9997H38.9933C39.5454 28.9997 39.9931 28.5525 39.9931 27.9998C39.9931 27.4477 39.5454 27 38.9933 27Z" fill="#FF3E9D"/>
<path d="M17.9969 33.9997C18.5491 33.9997 18.9967 33.5525 18.9967 32.9998C18.9967 32.4477 18.5491 32 17.9969 32H7.99861C7.44646 32 6.99878 32.4477 6.99878 32.9998C6.99878 33.5525 7.44646 33.9997 7.99861 33.9997H17.9969Z" fill="#FF3E9D"/>
<path d="M21.9964 33.9997H28.9952C29.5474 33.9997 29.995 33.5525 29.995 32.9998C29.995 32.4477 29.5474 32 28.9952 32H21.9964C21.4443 32 20.9966 32.4477 20.9966 32.9998C20.9966 33.5525 21.4443 33.9997 21.9964 33.9997Z" fill="#FF3E9D"/>
<path d="M44.9923 46C44.4402 46 43.9925 46.4478 43.9925 47V57C43.9925 57.5527 43.5448 58 42.9927 58H2.99949C2.44734 58 1.99966 57.5527 1.99966 57V3C1.99966 2.44775 2.44734 2 2.99949 2H42.9927C43.5448 2 43.9925 2.44775 43.9925 3V21.7803C43.9925 22.3325 44.4402 22.7803 44.9923 22.7803C45.5445 22.7803 45.9922 22.3325 45.9922 21.7803V3C45.9922 1.34326 44.6491 0 42.9927 0H2.99949C1.34303 0 0 1.34326 0 3V57C0 58.6572 1.34303 60 2.99949 60H42.9927C44.6491 60 45.9922 58.6572 45.9922 57V47C45.9922 46.4478 45.5445 46 44.9923 46Z" fill="#FF3E9D"/>
</svg>
