<svg width="60" height="60" viewBox="0 0 60 60" fill="none" xmlns="http://www.w3.org/2000/svg">
<path d="M21.2904 50.3225H11.613C10.5455 50.3225 9.67749 51.1905 9.67749 52.258V54.1934C9.67749 55.2609 10.5455 56.1289 11.613 56.1289H21.2905C22.358 56.1289 23.226 55.2609 23.226 54.1934V52.258C23.226 51.1906 22.3579 50.3225 21.2904 50.3225ZM11.613 54.1936V52.2581H21.2905L21.2915 54.1936H11.613Z" fill="#FF3E9D"/>
<path d="M9.67749 5.8064H19.355V7.74187H9.67749V5.8064Z" fill="#FF3E9D"/>
<path d="M21.2905 5.8064H23.226V7.74187H21.2905V5.8064Z" fill="#FF3E9D"/>
<path d="M12.5808 29.0324C13.1152 29.0324 13.5485 28.5991 13.5485 28.0647C13.5485 27.5302 13.1152 27.0969 12.5808 27.0969C12.0463 27.0969 11.613 27.5302 11.613 28.0647C11.613 28.5991 12.0463 29.0324 12.5808 29.0324Z" fill="#FF3E9D"/>
<path d="M20.3227 29.0324C20.8572 29.0324 21.2905 28.5991 21.2905 28.0647C21.2905 27.5302 20.8572 27.0969 20.3227 27.0969C19.7883 27.0969 19.355 27.5302 19.355 28.0647C19.355 28.5991 19.7883 29.0324 20.3227 29.0324Z" fill="#FF3E9D"/>
<path d="M17.4196 32.9032H13.5486V34.8387H17.4196C19.5544 34.8387 21.2905 33.1026 21.2905 30.9678H19.355C19.355 32.0352 18.487 32.9032 17.4196 32.9032Z" fill="#FF3E9D"/>
<path d="M58.065 0H29.0325C27.965 0 27.097 0.868008 27.097 1.93547H4.83871C2.17068 1.93547 0 4.10613 0 6.77414V55.1613C0 57.8293 2.17068 60 4.83871 60H28.0648C30.4009 60 32.3557 58.3345 32.8057 56.1291H37.5951L37.7576 55.1459C37.9124 54.2159 38.526 53.4456 39.4386 53.0691C40.3145 52.7052 41.2947 52.8155 42.0631 53.3652L42.8731 53.9411L48.1368 48.6785L47.557 47.8676C47.0093 47.1001 46.899 46.1198 47.2803 45.2053C47.6393 44.3333 48.4096 43.7198 49.3405 43.565L50.3228 43.3996V35.9566L49.3396 35.7912C48.4096 35.6364 47.6403 35.0228 47.2637 34.1112C46.8999 33.2364 47.0092 32.256 47.5579 31.4886L48.1365 30.6777L42.871 25.4113L42.061 25.9929C41.2946 26.5397 40.3142 26.652 39.3997 26.2697C38.5267 25.9106 37.9133 25.1404 37.7583 24.2113L37.5947 23.2261H32.9031V22.4868L33.5011 21.2906H58.0645C59.132 21.2906 60 20.4226 60 19.3552V1.93547C60.0005 0.868008 59.1323 0 58.065 0V0ZM32.9035 34.9461C33.2209 34.8813 33.5421 34.8387 33.8712 34.8387C36.5392 34.8387 38.7099 37.0093 38.7099 39.6773C38.7099 42.3453 36.5392 44.516 33.8712 44.516C33.5421 44.516 33.2209 44.4735 32.9035 44.4086V34.9461ZM32.9035 46.3693C33.2228 46.4157 33.5451 46.4516 33.8712 46.4516C37.6067 46.4516 40.6454 43.4119 40.6454 39.6775C40.6454 35.943 37.6067 32.9033 33.8712 32.9033C33.5451 32.9033 33.2228 32.9392 32.9035 32.9856V31.0259C33.2248 30.99 33.548 30.9679 33.8712 30.9679C38.6732 30.9679 42.581 34.8746 42.581 39.6776C42.581 44.4805 38.6732 48.3873 33.8712 48.3873C33.548 48.3873 33.2248 48.365 32.9035 48.3293V46.3693ZM30.968 46.4516H27.097V45.4839C27.097 42.1287 25.5079 38.9932 22.8747 36.9968C24.0447 35.9584 24.8509 34.5243 25.0841 32.9032H25.1615C27.2963 32.9032 29.0325 31.1671 29.0325 29.0323C29.0325 28.4884 28.9173 27.9716 28.7141 27.5013C28.8602 26.6777 28.9444 25.8436 28.9861 25.0065C29.2619 25.0995 29.5522 25.1613 29.859 25.1613C30.2538 25.1613 30.6226 25.0559 30.9681 24.9029V46.4516H30.968ZM18.3872 36.7741H14.5162C11.8482 36.7741 9.67754 34.6035 9.67754 31.9355V25.588C9.67754 24.2855 10.7373 23.2257 12.0398 23.2257C12.2944 23.2257 12.545 23.2664 12.7869 23.3467L15.1017 24.118C17.1776 24.8109 19.3404 25.1612 21.5286 25.1612H22.2583C22.7915 25.1612 23.226 25.5948 23.226 26.1289V31.9354C23.226 34.6036 21.0554 36.7741 18.3872 36.7741ZM19.1934 38.6575C18.8072 39.8081 17.7311 40.6452 16.4517 40.6452C15.1724 40.6452 14.0962 39.8081 13.7101 38.6575C13.9753 38.6884 14.2433 38.7097 14.5162 38.7097H18.3872C18.6601 38.7097 18.9282 38.6884 19.1934 38.6575ZM22.2582 23.2259H21.5284C19.5494 23.2259 17.5926 22.9084 15.7143 22.2823L13.4004 21.5109C12.961 21.3648 12.5033 21.2903 12.0397 21.2903C9.81582 21.2903 8.00221 22.9935 7.78448 25.1612H7.74194C7.06552 25.1612 6.43833 25.3509 5.88485 25.6567C5.83551 25.1176 5.80645 24.5767 5.80645 24.0367C5.80645 19.3208 9.64355 15.4838 14.3594 15.4838H18.544C23.2599 15.4838 27.097 19.3208 27.097 24.0367C27.097 24.5767 27.0679 25.1187 27.0186 25.6567C26.465 25.3508 25.8379 25.1612 25.1615 25.1612H24.9835C24.5827 24.0377 23.5182 23.2259 22.2582 23.2259ZM7.74205 30.9677C6.67458 30.9677 5.80657 30.0997 5.80657 29.0323C5.80657 27.9648 6.67458 27.0968 7.74205 27.0968V30.9677ZM25.1615 27.0968C26.229 27.0968 27.097 27.9648 27.097 29.0323C27.097 30.0997 26.229 30.9677 25.1615 30.9677V27.0968ZM27.097 17.9875C25.1954 15.3068 22.0744 13.5484 18.544 13.5484H14.3594C8.5762 13.5484 3.87097 18.2536 3.87097 24.0368C3.87097 25.1971 3.9871 26.3593 4.18937 27.5013C3.98616 27.9716 3.87097 28.4884 3.87097 29.0323C3.87097 31.1671 5.60711 32.9032 7.74194 32.9032H7.8194C8.0526 34.5232 8.85874 35.9584 10.0297 36.9968C7.39553 38.9932 5.80645 42.1268 5.80645 45.4839V46.4516H1.93548V11.6129H27.097V17.9875ZM7.74205 45.4839C7.74205 42.5497 9.23621 39.8361 11.6624 38.2316C11.9121 40.6675 13.951 42.5807 16.4517 42.5807C18.9524 42.5807 20.9915 40.6665 21.2411 38.2307C23.6673 39.8371 25.1614 42.5497 25.1614 45.4839V46.4516H7.74205V45.4839ZM4.83871 3.87094H27.0969V9.67734H1.93548V6.77414C1.93548 5.17359 3.23803 3.87094 4.83871 3.87094ZM28.0648 58.0645H4.83871C3.23803 58.0645 1.93548 56.762 1.93548 55.1613V48.3872H30.968V55.1613C30.968 56.7619 29.6654 58.0645 28.0648 58.0645ZM36.0003 25.1613C36.4096 26.4677 37.3744 27.5265 38.6955 28.0713C39.9894 28.6104 41.4178 28.5397 42.6314 27.9077L45.6421 30.9184C45.0082 32.132 44.9414 33.5643 45.4921 34.8871C46.0243 36.18 47.083 37.14 48.3885 37.5484V41.8065C47.0821 42.2159 46.0224 43.1807 45.4785 44.5017C44.9405 45.7946 45.0082 47.224 45.6421 48.4356L42.6314 51.4463C41.4168 50.8114 39.9846 50.7465 38.6627 51.2962C37.3697 51.8304 36.4097 52.8872 36.0004 54.1937H32.9036V50.2744C33.2258 50.3034 33.5481 50.3228 33.8713 50.3228C39.7407 50.3228 44.5166 45.5469 44.5166 39.6776C44.5166 33.8082 39.7407 29.0324 33.8713 29.0324C33.5481 29.0324 33.2258 29.0517 32.9036 29.0808V25.1613H36.0003ZM58.065 19.3548H32.3054L30.5984 22.768C30.4581 23.0505 30.1745 23.2257 29.859 23.2257C29.4032 23.2257 29.0326 22.8541 29.0326 22.3993V1.93547H58.0651V19.3548H58.065Z" fill="#FF3E9D"/>
<path d="M32.9033 3.87097H36.7743V5.80644H32.9033V3.87097Z" fill="#FF3E9D"/>
<path d="M38.71 3.87097H54.194V5.80644H38.71V3.87097Z" fill="#FF3E9D"/>
<path d="M32.9033 7.74207H50.3228V9.67753H32.9033V7.74207Z" fill="#FF3E9D"/>
<path d="M32.9033 11.6129H42.5809V13.5484H32.9033V11.6129Z" fill="#FF3E9D"/>
<path d="M32.9033 15.4841H34.8388V17.4196H32.9033V15.4841Z" fill="#FF3E9D"/>
<path d="M36.7744 15.4841H38.7099V17.4196H36.7744V15.4841Z" fill="#FF3E9D"/>
<path d="M54.1941 23.2258H56.1296V25.1613H54.1941V23.2258Z" fill="#FF3E9D"/>
<path d="M50.323 23.2258H52.2585V25.1613H50.323V23.2258Z" fill="#FF3E9D"/>
<path d="M46.4519 23.2258H48.3874V25.1613H46.4519V23.2258Z" fill="#FF3E9D"/>
</svg>
