<svg width="20" height="20" viewBox="0 0 20 20" fill="none" xmlns="http://www.w3.org/2000/svg">
<path d="M14.95 5.0498H14.959" stroke="#FF3E9D" stroke-width="2" stroke-linecap="round" stroke-linejoin="round"/>
<path d="M14.5 1H5.5C3.01472 1 1 3.01472 1 5.5V14.5C1 16.9853 3.01472 19 5.5 19H14.5C16.9853 19 19 16.9853 19 14.5V5.5C19 3.01472 16.9853 1 14.5 1Z" stroke="#FF3E9D" stroke-width="2" stroke-linecap="round" stroke-linejoin="round"/>
<path d="M13.6 9.43278C13.7111 10.1818 13.5832 10.9468 13.2344 11.6189C12.8857 12.291 12.3339 12.8361 11.6575 13.1765C10.9811 13.5169 10.2146 13.6354 9.46704 13.5151C8.71944 13.3948 8.02881 13.0419 7.49338 12.5064C6.95795 11.971 6.60499 11.2804 6.48469 10.5328C6.36439 9.78518 6.48289 9.01869 6.82332 8.34232C7.16376 7.66595 7.7088 7.11415 8.38092 6.7654C9.05303 6.41665 9.81801 6.28871 10.567 6.39978C11.3311 6.51308 12.0384 6.8691 12.5846 7.41526C13.1307 7.96142 13.4867 8.66875 13.6 9.43278Z" stroke="#FF3E9D" stroke-width="2" stroke-linecap="round" stroke-linejoin="round"/>
</svg>
